<svg width="1449" height="844" xmlns="http://www.w3.org/2000/svg"><g transform="translate(13 9)" fill="none" fill-rule="evenodd"><g stroke="#000"><g transform="translate(675 82)"><path d="M743.71 165.77C730.2 156.453 713.822 151 696.17 151c-44.792 0-81.379 35.117-83.713 79.31-17.597-20.71-41.16-32.41-65.739-29.818-34.433 3.63-61.105 34.282-69.706 74.91-20.75-25.885-49.21-40.699-78.938-37.564-36.216 3.818-65.07 33.298-77.747 73.849-17.007-25.15-41.697-41.143-69.418-41.628-31.212-.547-59.27 18.69-77.217 48.882-13.798-29.663-37.331-50.882-66.703-56.077-32.858-5.812-65.686 9.727-89.741 38.516-29.934-37.958-20.905-83.617 27.088-136.976L186.29 66.322C256.765 29.323 307.804 8.333 339.405 3.35 386.806-4.124 464.31-.615 527.955 29.6 570.385 49.743 644.4 93.043 750 159.502a734.258 734.258 0 0 1-6.29 6.267z" stroke-width="13" fill="#9E1036"/><path d="M380.014 0c60.835 41.438 105.687 76.104 134.558 104 28.87 27.896 60.813 67.791 95.83 119.688M380.014 0L474.5 262.982M380 0c-26.156 62.696-42.758 111.55-49.806 146.561-7.048 35.012-10.946 87.991-11.694 158.939" stroke-width="13" fill="#9E1036"/><path d="M175.5 310.46c.005-67.544 1.907-116.03 5.706-145.46 3.8-29.43 12.718-64.763 26.757-106" stroke-width="10" stroke-linecap="square"/></g><g transform="scale(-1 1) rotate(-11 304.97 3801.361)"><path d="M665.373 165.8c-12.087-9.317-26.74-14.772-42.533-14.772-40.042 0-72.754 35.066-74.89 79.218-15.722-20.67-36.776-32.335-58.744-29.726-30.775 3.654-54.64 34.283-62.382 74.877-18.545-25.883-43.995-40.684-70.592-37.526-32.408 3.848-58.243 33.375-69.606 73.966-15.22-25.205-37.332-41.24-62.16-41.729-27.972-.552-53.108 18.751-69.158 49.033-12.367-29.733-33.446-51.02-59.738-56.258-29.393-5.855-58.737 9.658-80.218 38.44C-11.334 263.38-3.23 217.75 39.666 164.434l127-98.1c63.053-37.005 108.716-58 136.988-62.983 42.409-7.475 111.749-3.966 168.69 26.254C510.304 49.752 576.523 93.061 671 159.531a700.648 700.648 0 0 1-5.627 6.269z" stroke-width="13" fill="#9E1036"/><path d="M340 0c54.395 41.496 94.5 76.21 120.314 104.145C486.128 132.08 514.69 172.031 546 224M340.013 0l84.54 262.982M340 0c-23.391 62.799-38.239 111.733-44.542 146.801-6.303 35.07-9.79 88.135-10.458 159.199" stroke-width="13" fill="#9E1036"/><path d="M157 310c.004-67.42 1.704-115.819 5.098-145.194C165.492 135.43 173.459 100.162 186 59" stroke-width="10" stroke-linecap="square"/></g></g><g transform="translate(703 240)" fill="#ACBD00" stroke="#000" stroke-width="9"><ellipse transform="rotate(48 112.99 71.474)" cx="112.99" cy="71.474" rx="39" ry="73"/><ellipse transform="rotate(82 118.635 142.698)" cx="118.635" cy="142.698" rx="39" ry="73"/><ellipse transform="rotate(108 99.212 261.038)" cx="99.212" cy="261.038" rx="39" ry="73"/><ellipse transform="rotate(108 76.192 332.98)" cx="76.192" cy="332.979" rx="39" ry="73"/><ellipse transform="rotate(89 142.678 202.578)" cx="142.678" cy="202.578" rx="26.5" ry="42"/></g><g transform="translate(442 51)"><g transform="rotate(-26 197.3 43.533)"><path d="M.094 96.365c-1.172-31.243 8.653-55.3 29.477-72.169C60.806-1.108 83.181-3.82 112.823 3.627c29.642 7.45 48.62 23.938 61.485 38.471C187.174 56.631 207 88.473 207 110.767c0 22.294-9.678 59.602-26.735 74.892s-32.95 29.524-64.76 18.336c-31.811-11.188-40.57-25.145-40.57-41.704 0-16.56 6.637-39.395 20.098-45.321 13.46-5.926 25.335-6.113 32.957-3.056a749.975 749.975 0 0 1 14.648 6.048c-19.425 4.252-30.797 11.474-34.114 21.665-4.977 15.287 10.805 33.519 34.114 18.869 23.309-14.65 29.845-42.195 20.117-67.123-9.727-24.929-45.777-51.06-78.612-32.004-21.89 12.704-31.776 29.262-29.656 49.675l1.483 14.497c-16.637 3.823-28.865 2.84-36.685-2.947-7.82-5.787-14.217-14.53-19.191-26.229z" fill="#000"/><path d="M7 90.725c5.598-33.358 19.824-56.147 42.68-68.367 34.283-18.33 66.994-13.19 78.755-4.28 7.84 5.94 15.362 14.586 22.565 25.934-35.191-25.793-64.46-25.793-87.806 0C39.847 69.806 31.195 92.468 37.239 112L7 90.725zM168.142 46c13.167 22.692 20.396 41.985 21.686 57.88 1.935 23.841-2.781 45.47-7.312 54.327-4.531 8.858-14.374 23.372-24.854 31.446-6.988 5.383-12.875 8.832-17.662 10.347 14.684-.838 26.249-6.624 34.693-17.358C187.359 166.54 200 139.749 200 125.36c0-14.388-.599-36.1-12.953-55.956-8.236-13.237-14.538-21.039-18.905-23.405z" fill="#D8D8D8"/></g><g transform="translate(196 15)"><path d="M.094 96.365c-1.172-31.243 8.653-55.3 29.477-72.169C60.806-1.108 83.181-3.82 112.823 3.627c29.642 7.45 48.62 23.938 61.485 38.471C187.174 56.631 207 88.473 207 110.767c0 22.294-9.678 59.602-26.735 74.892s-32.95 29.524-64.76 18.336c-31.811-11.188-40.57-25.145-40.57-41.704 0-16.56 6.637-39.395 20.098-45.321 13.46-5.926 25.335-6.113 32.957-3.056a749.975 749.975 0 0 1 14.648 6.048c-19.425 4.252-30.797 11.474-34.114 21.665-4.977 15.287 10.805 33.519 34.114 18.869 23.309-14.65 29.845-42.195 20.117-67.123-9.727-24.929-45.777-51.06-78.612-32.004-21.89 12.704-31.776 29.262-29.656 49.675l1.483 14.497c-16.637 3.823-28.865 2.84-36.685-2.947-7.82-5.787-14.217-14.53-19.191-26.229z" fill="#000"/><path d="M7 90.725c5.598-33.358 19.824-56.147 42.68-68.367 34.283-18.33 66.994-13.19 78.755-4.28 7.84 5.94 15.362 14.586 22.565 25.934-35.191-25.793-64.46-25.793-87.806 0C39.847 69.806 31.195 92.468 37.239 112L7 90.725zM168.142 46c13.167 22.692 20.396 41.985 21.686 57.88 1.935 23.841-2.781 45.47-7.312 54.327-4.531 8.858-14.374 23.372-24.854 31.446-6.988 5.383-12.875 8.832-17.662 10.347 14.684-.838 26.249-6.624 34.693-17.358C187.359 166.54 200 139.749 200 125.36c0-14.388-.599-36.1-12.953-55.956-8.236-13.237-14.538-21.039-18.905-23.405z" fill="#D8D8D8"/></g></g><g transform="translate(303 144)"><path d="M98 440c-5.074-9.134-10.59-18.544-16-27a201.522 201.522 0 0 0 16 27m355.917-177.64c-30.875-27.662-52.16-44.663-82.766-50.991-20.577-4.252-45.135 1.192-66.8 5.994-16.42 3.644-30.599 6.797-41.632 5.628-16.945-1.784-30.379-10.695-34.206-22.714-2.697-8.466-1.958-22.033 16.895-38.615 7.844-6.901 17.23-12.668 27.52-17.355-14.84.023-29.505-2.83-43.6-10.307-18.203 25.267-64.404 43.571-78.623 37.262-3.158-1.403-6.685-3.81-9.944-7.166-.308.238-.592.5-.9.742 3.75 3.51 6.486 8.427 7.667 14.175 2.397 11.653-1.685 24.12-10.921 33.348-8.04 8.039-18.17 12.649-27.783 12.649-6.724 0-12.464-2.338-16.764-6.42C73.04 249.541 62 285.907 62 324.9c0 18.155 2.427 35.732 6.886 52.483 19.088 15.725 50.529 78.192 57.388 93.863a45.68 45.68 0 0 1 1.23 3.195c32.719 30.234 75.346 49.922 122.494 53.559-.593-7.793-.327-16.097-.054-24.298.33-10.046.677-20.438-.635-28.973-1.081-7.024-2.885-14.56-4.797-22.537-7.12-29.746-15.2-63.463 13.264-82.425 5.455-3.637 11.387-5.482 17.623-5.482 25.574 0 48.82 30.818 60.815 54.251 16.334-26.424 43.178-43.179 75.099-46.412 16.165-1.642 32.295.454 45.59 5.375A198.205 198.205 0 0 0 464 324.9c0-21.396-3.393-42.433-10.083-62.54" fill="#005683"/><path d="M321.468 214.156c-5.82 1.142-11.567 2.412-17.126 3.646-16.418 3.647-30.597 6.801-41.63 5.632-16.945-1.785-30.377-10.701-34.205-22.726-2.697-8.47-1.958-22.044 16.895-38.634.273-.239.58-.454.854-.693A157.186 157.186 0 0 0 208.104 154c-20.915 14.128-47.27 22.175-57.402 17.679-3.154-1.404-6.678-3.808-9.932-7.163-.3.25-.6.497-.908.739 3.75 3.512 6.482 8.432 7.663 14.178 2.397 11.66-1.685 24.133-10.92 33.365-8.04 8.043-18.17 12.655-27.782 12.655-6.728 0-12.471-2.342-16.772-6.431C73.036 249.99 62 286.382 62 325.394c0 18.148 2.385 35.738 6.851 52.478 12.802 10.52 31.167 42.112 43.953 66.537C137.227 459.953 166.186 469 197.283 469c17.183 0 33.709-2.785 49.196-7.866a985.08 985.08 0 0 0-1.973-8.386c-7.12-29.76-15.199-63.494 13.263-82.465 5.455-3.64 11.387-5.485 17.622-5.485 19.669 0 37.933 18.236 50.785 37.322C344.31 376.437 355 345.123 355 311.292c0-36.661-12.544-70.364-33.532-97.136" fill="#00709C"/><g opacity=".442" transform="translate(107 209)" fill="#FFF"><path d="M214.307 4.386c16.45-3.388 29.26-4.771 38.43-4.152 9.17.62 20.31 3.622 33.419 9.007 7.336 15.154 12.057 27.24 14.161 36.259 2.105 9.019 3.666 23.852 4.683 44.5-13.781-2.328-23.846-3.492-30.195-3.492-6.348 0-15.283 1.164-26.805 3.492-3.522-19.065-7.188-33.898-11-44.5-3.812-10.602-11.376-24.306-22.693-41.114zM305 90c8.769 4.037 18 7.085 27.697 9.142 9.695 2.057 17.796 2.733 24.303 2.028 2.603 3.38 3.708 9.9 3.316 19.56-.392 9.66-2.592 26.397-6.601 50.21L305 164V90zm-71.5 78.864H283L272 248l-78.265-8.605c13.711-23.96 23.415-40.991 29.113-51.096 5.697-10.106 9.248-16.584 10.652-19.435zM.395 232.731c14.596 8.414 25.863 14.222 33.803 17.424 7.939 3.202 19.206 5.934 33.802 8.195V278c-13.839-4.624-25.172-8.78-34-12.468-8.828-3.688-17.604-8.447-26.329-14.277L.395 232.731zM114 257.897c5.737-.778 11.78-2.044 18.127-3.798 6.348-1.753 14.305-4.356 23.873-7.806V278c-9.462 3.716-17.42 6.026-23.873 6.93-6.453.903-12.662 1.386-18.627 1.448l.5-28.481zM68 278c10 3.609 18 5.923 24 6.944 5.999 1.02 13.166 1.538 21.5 1.552-.77 3.699-1.27 8.193-1.5 13.482-.23 5.289-.23 13.296 0 24.022H68v-46z"/></g><path d="M183.284 431.883c-8.746.565-15.864.061-24.556-1.737-2.623-26.086-4.314-58.67 8.854-115.468 23.921 61.825 50.268 107.162 50.457 107.412-4.48 2.133-18.105 8.62-34.755 9.793m-40.116-6.588c-68.443-31.04-81.006-104.617-58.04-161.257.874 56.052 16.603 99.755 58.04 161.257m92.641-13.836c10.857-46.693 28.905-91.33 39.523-138.093 2.05-9.04 3.825-23.107.632-38.792 31.631 49.311 28 125.902-40.155 176.885M94.753 245.248c30.895-47.455 89.98-86.05 154.829-38.653-.435-.02-41.572 1.864-11.674 46.001 16.16 23.852 17.19 42.988 4.406 81.903-4.614 19.186-6.008 24.978-10.129 44.733-19.73-47.058-35.833-87.122-48.55-138.354 11.18-1.638 23.847-3.494 17.339-10.673-.82-.904-59.716 4.927-60.278 5.023-4.522.769-5.315 6.08-5.323 6.13-.47 4.193.293 4.15 13.052 3.382 3.363 18.087 4.896 26.347 13.215 52.747-6.005 24.917-12.22 50.683-13.072 90.581-26.836-53.304-37.578-90.327-39.627-136.61 3.81-2.31 8.897-1.402 12.263-4.842 2.295-2.349 3.412-7.645.55-8.26-10.148-2.183-17.893 4.993-27.001 6.892m93.25-70.139c-101.53 8.364-167.459 161.043-77.664 240.943 91.008 80.972 203.445-23.652 199.563-120.729-3.015-75.261-65.462-122.92-121.9-120.214" fill="#FFF" fill-rule="nonzero"/><path d="M136.05 163.98c-37.273 44.84-60.39 80.324-69.353 106.454-8.593 25.61-9.186 61.096-1.78 106.454" stroke="#000" stroke-width="9" stroke-linecap="square"/><path d="M125.247 476.628c17.767 14.265 33.664 24.696 47.69 31.295 14.028 6.598 38.835 13.828 74.422 21.69" stroke="#000" stroke-width="11" stroke-linecap="square"/><path d="M331.061 449.054c-.061-.243-.115-.478-.177-.724a184.156 184.156 0 0 0-1.847-6.802C323.311 420.942 296.082 380 275.284 380c-3.197 0-6.177.95-9.111 2.902-18.211 12.126-14.537 34.06-6.844 66.136 1.9 7.934 3.867 16.14 5.047 23.8 1.538 9.967 1.164 21.103.806 31.866-.556 16.714-1.13 34.001 6.088 41.45 3.158 3.26 8.078 4.846 15.045 4.846 2.017 0 3.914-.15 5.749-.381.56-.07 1.087-.173 1.627-.262a41.248 41.248 0 0 0 3.71-.77 36.474 36.474 0 0 0 5.14-1.732c.335-.139.69-.262 1.017-.408a37.544 37.544 0 0 0 4.172-2.21c.127-.08.243-.173.37-.254a37.991 37.991 0 0 0 3.293-2.352c.305-.242.594-.492.89-.742a41.037 41.037 0 0 0 2.438-2.233c.258-.258.524-.516.775-.778a45.485 45.485 0 0 0 2.444-2.787c.089-.111.189-.215.274-.327a47.908 47.908 0 0 0 2.363-3.276c.174-.257.324-.52.486-.773a55.203 55.203 0 0 0 1.465-2.44 56.78 56.78 0 0 0 1.639-3.145c.197-.413.405-.828.59-1.236.262-.574.49-1.124.721-1.679a60.759 60.759 0 0 0 1.284-3.31l.066-.173c.254-.74.485-1.44.686-2.09.875-2.845 1.272-4.84 1.33-5.174.058-.331.139-.678.243-.993 5.78-18.265 8.101-33.628 3.393-56.243a166.915 166.915 0 0 0-1.419-6.178M18.4 386.455c-5.82 7.13-7.757 17.16-5.456 28.25 5.87 28.297 56.303 83.177 90.463 91.353 2.609.624 4.975.942 7.03.942 5.325 0 7.307-2.08 8.337-3.647 4.164-6.356 1.801-20.178-1.502-27.71-9.459-21.558-39.43-78.074-54.578-89.697C55.068 380.092 46.858 377 38.948 377c-8.27 0-15.574 3.36-20.548 9.455m76.818-184.708c1.766 9.299 8.01 11.253 12.94 11.253 6.479 0 13.816-3.425 19.626-9.17 6.483-6.405 9.391-14.856 7.78-22.615-1.001-4.817-3.664-8.508-7.122-9.873-.566-.224-1.343-.342-2.251-.342-6.214 0-17.564 5.528-25.067 14.461-2.74 3.266-7.156 9.72-5.906 16.286" fill="#FFD200"/><path d="M420.573 519.403c-36.377 67.972-115.398 120.2-183.96 121.53-35.414.594-62.85-13.042-77.756-38.64-16.721-28.723-42.262-39.327-58.878-34.959-11.135 2.932-17.516 12.416-17.968 26.715-.398 12.544 10.446 29.28 29.004 44.772 33.366 27.858 90.62 50.256 143.29 37.511C345.359 654.312 427.14 582.436 455 502c-11.791 7.196-23.343 12.922-34.427 17.403z" fill="#635238"/><path d="M91.7 141.349c-.533.119-.696.303-.7.303.053-.02.392.625 1.655 1.485 2.313 1.577 11.739 6.009 37.264-.871-.783-5.97-.487-13.418 2.081-22.266-14.916 10.463-31.737 19.43-40.3 21.349" fill="#F80"/><path d="M108.666 225c-12.558 0-21.853-8.022-24.259-20.937-1.564-8.408 1.407-17.692 8.362-26.14C101.803 166.96 116.063 159 126.677 159c2.39 0 4.588.395 6.528 1.177 7.06 2.845 12.34 9.764 14.122 18.505 2.394 11.735-1.683 24.29-10.91 33.581-8.03 8.095-18.148 12.737-27.75 12.737zm18.01-54.386c-6.205 0-17.541 5.63-25.034 14.727-2.736 3.326-7.148 9.9-5.899 16.585 1.764 9.47 8 11.46 12.923 11.46 6.471 0 13.8-3.488 19.602-9.338 6.474-6.523 9.38-15.13 7.77-23.031-1-4.905-3.659-8.664-7.113-10.054-.565-.229-1.341-.349-2.248-.349z" fill="#000" fill-rule="nonzero"/><path d="M486.42 100.742c-6.804-3.312-27.686-40.505-58.174-61.444-31.28-21.483-72.298-26.687-88.561-27.177-79.808-2.416-149.752 31.52-187.14 90.776-10.22 16.206-13.753 30.932-10.205 42.598 2.583 8.496 8.51 13.735 12.8 15.64 7.264 3.235 53.485-12.798 66.915-37.2a5.777 5.777 0 0 1 3.582-2.793 5.778 5.778 0 0 1 4.494.665c31.534 19.39 66.98 10.524 97.723.695a5.77 5.77 0 0 1 7.25 3.733c.518 1.629.257 3.308-.547 4.675 20.318-.534 40.706 2.562 58.671 9.649a5.761 5.761 0 0 1 3.244 7.475 5.76 5.76 0 0 1-7.48 3.241c-44.203-17.43-104.065-8.892-136.291 19.452-11.05 9.718-15.852 19.105-13.515 26.43 2.403 7.529 12.204 13.452 24.4 14.73 9.168.953 23.117-2.131 37.896-5.411 22.774-5.051 48.596-10.779 71.578-6.023 37.246 7.701 61.957 30.03 99.357 63.827l4.559 4.118a5.76 5.76 0 0 1 .411 8.135 5.736 5.736 0 0 1-4.278 1.901c-1.307 0-2.598-.476-3.667-1.363a209.842 209.842 0 0 1 5.585 48.094c0 19.543-2.714 38.852-8.018 57.447 5.938 3.357 10.928 7.39 14.502 12.015a5.753 5.753 0 0 1-1.034 8.078c-2.513 1.947-6.146 1.486-8.087-1.034-9.959-12.879-35.324-20.384-60.381-17.86-18.246 1.847-51.495 10.582-70.337 47.99.719 1.92 1.315 3.699 1.749 5.262 9.878 33.832 7.541 54.359.073 78.15-.734 4.015-2.156 8.8-4.286 13.786 25.373.073 70.16-5.496 117.819-38.288 90.235-62.087 82.298-257.379 52.928-340.308-6.446-18.202-14.364-34.769-23.535-49.66z" fill="#FFD200"/><path d="M151.955 584.852l26.754 33.574c-9.933 6.135-16.907 11.906-20.924 17.313-4.017 5.407-8.928 15.634-14.733 30.681l-35.657-25.103c4.203-16.219 8.826-27.524 13.87-33.915 5.044-6.391 15.274-13.908 30.69-22.55zM218 637h56c-4.625 9.052-6.938 16.218-6.938 21.5s2.313 12.448 6.938 21.5h-56c-5.172-9.137-7.757-16.304-7.757-21.5 0-5.196 2.585-12.363 7.757-21.5z" fill="#BFA992"/><path d="M308.418 619.15l35.429-18.052c-1.836 8.432-1.836 14.45 0 18.052 1.835 3.602 7.132 7.98 15.89 13.133l-35.43 18.052c-8.734-2.656-14.03-5.808-15.889-9.455-1.858-3.647-1.858-10.89 0-21.73z" fill="#BFA992"/><path d="M368 577.163L394.163 551c2.635 7.965 5.38 13.375 8.236 16.23 2.855 2.856 8.124 5.46 15.806 7.812l-26.163 26.163c-6.708-.496-11.58-2.261-14.617-5.298-3.036-3.036-6.178-9.284-9.425-18.744z" fill="#BFA992"/><path d="M340.266.13C256.559-2.437 183 33.342 143.285 95.774c-15.277 15.075-44.637 31.791-54.497 33.988-4.566 1.011-8.01 4.077-9.225 8.193-1.223 4.165.093 8.723 3.513 12.19 3.135 3.16 9.66 7.115 22.712 7.115 7.02 0 15.961-1.17 27.248-4.193 4.24 9.609 11.545 15.725 17.496 18.371 14.219 6.312 60.421-12 78.625-37.28 14.095 7.482 28.76 10.336 43.602 10.313-10.29 4.688-19.677 10.458-27.521 17.362-18.855 16.59-19.593 30.164-16.896 38.634 3.827 12.024 17.261 20.94 34.207 22.725 11.033 1.17 25.213-1.985 41.632-5.631 21.666-4.804 46.225-10.25 66.803-5.997 30.607 6.332 51.892 23.34 82.768 51.016 6.69 20.117 10.083 41.165 10.083 62.57 0 17.89-2.408 35.569-7.098 52.624-13.295-4.924-29.425-7.02-45.59-5.377-31.923 3.234-58.767 19.997-75.101 46.434-11.995-23.444-35.243-54.277-60.817-54.277-6.236 0-12.168 1.846-17.623 5.485-28.464 18.97-20.386 52.704-13.265 82.464 1.912 7.981 3.716 15.52 4.797 22.548 1.312 8.54.966 18.936.635 28.987-.662 19.91-1.346 40.492 10.39 52.627 6.118 6.324 14.889 9.532 26.072 9.532 23.128 0 38.081-12.047 47.045-25.514 2.042.077 4.204.13 6.566.13 14.884 0 35.866-1.865 60.017-9.23-36.088 56.073-103.976 97.819-163.266 98.946-21.262.461-50.08-4.712-65.941-31.38-19.262-32.39-50.007-44.026-70.404-38.76-16.065 4.134-25.624 17.405-26.236 36.39-.512 15.818 11.375 34.842 32.607 52.194C134.537 671.787 178.553 691 223.433 691c11.14 0 22.34-1.185 33.357-3.793 97.879-23.182 185.31-102.054 208.845-188.03 52.935-37.815 69.784-112.978 74.555-169.71 6.078-72.321-5.151-144.111-18.977-183.172-3.046-8.607-28.815-71.409-78.805-111.314C412.214 10.878 355.048.577 340.266.13zM92.254 142.817c-1.277-.862-1.62-1.508-1.673-1.489.004 0 .17-.185.708-.304 8.66-1.923 25.67-10.912 40.755-21.402-2.597 8.87-2.897 16.336-2.105 22.321-25.813 6.897-35.346 2.454-37.685.874zm236.413 369.49c-.28 1.57-7.255 38.504-42.432 38.504-6.952 0-11.86-1.585-15.011-4.843-7.202-7.443-6.628-24.717-6.074-41.419.357-10.754.73-21.882-.805-31.84-1.177-7.655-3.139-15.856-5.035-23.783-7.675-32.053-11.341-53.97 6.828-66.086 2.928-1.95 5.901-2.9 9.09-2.9 20.751 0 47.919 40.91 53.631 61.481 8.93 30.61 6.91 48.177.05 69.894a7.182 7.182 0 0 0-.242.993zM113.928 640.043c-18.157-14.84-28.767-30.872-28.379-42.888.443-13.697 6.686-22.783 17.58-25.59 16.258-4.185 41.248 5.973 57.61 33.487 14.583 24.521 41.428 37.584 76.077 37.014 67.084-1.273 144.4-51.304 179.993-116.417 10.845-4.292 22.147-9.777 33.684-16.67-27.26 77.052-107.277 145.904-196.365 166.998-51.534 12.208-107.554-9.247-140.2-35.934zM457.36 490.93c-47.698 32.837-92.524 38.415-117.918 38.342 2.132-4.993 3.555-9.786 4.29-13.805 7.475-23.825 9.814-44.38-.073-78.26-.435-1.566-1.031-3.347-1.75-5.27 18.857-37.46 52.134-46.208 70.395-48.058 25.079-2.527 50.465 4.99 60.433 17.886 1.942 2.524 5.578 2.985 8.094 1.035a5.763 5.763 0 0 0 1.035-8.09c-3.578-4.63-8.571-8.67-14.515-12.03a209.688 209.688 0 0 0 8.025-57.529c0-16.324-1.897-32.452-5.59-48.161 1.07.888 2.362 1.365 3.67 1.365a5.74 5.74 0 0 0 4.282-1.904 5.77 5.77 0 0 0-.412-8.146l-4.562-4.124c-37.432-33.845-62.164-56.204-99.441-63.917-23.001-4.761-48.845.974-71.639 6.032-14.791 3.285-28.752 6.373-37.927 5.42-12.207-1.281-22.016-7.213-24.42-14.752-2.34-7.335 2.465-16.736 13.525-26.467 32.253-28.383 92.166-36.934 136.407-19.479a5.763 5.763 0 0 0 7.486-3.246 5.77 5.77 0 0 0-3.247-7.485c-17.98-7.097-38.385-10.197-58.72-9.663.804-1.37 1.065-3.05.546-4.68a5.773 5.773 0 0 0-7.255-3.74c-30.769 9.843-66.246 18.721-97.806-.696a5.78 5.78 0 0 0-4.497-.665 5.782 5.782 0 0 0-3.586 2.796c-13.441 24.437-59.701 40.492-66.972 37.253-4.293-1.908-10.225-7.154-12.81-15.663-3.551-11.681-.016-26.429 10.213-42.657 37.42-59.34 107.424-93.323 187.299-90.903 7.774.234 61.092 5.797 98.861 36.158 41.807 33.605 68.163 92.741 71.552 102.318 29.395 83.045 37.34 278.61-52.973 340.785z" fill="#000" fill-rule="nonzero"/><path d="M216.554 92.7c-9.146 6.807-6.389 15.225 3.835 16.492 10.228 1.267 11.025 1.94 20.456-5.077 10.224-7.61 11.504-20.297 0-19.026-11.505 1.27-19.175 3.805-24.29 7.61M190 98.5c0 6.352-5.148 11.5-11.5 11.5-6.348 0-11.5-5.148-11.5-11.5S172.152 87 178.5 87c6.352 0 11.5 5.148 11.5 11.5m133-32c0 6.352-5.148 11.5-11.5 11.5S300 72.852 300 66.5 305.148 55 311.5 55 323 60.148 323 66.5" fill="#000"/><path d="M109.923 519c-2.957 0-6.225-.424-9.716-1.265-38.957-9.394-92.276-68.14-99.02-100.866-3.014-14.635-.245-28.163 7.796-38.082C16.091 370.025 26.835 365 38.463 365c10.468 0 21.105 3.945 30.763 11.407 18.966 14.651 51.138 78.88 58.08 94.815 2.888 6.63 8.621 26.529.588 38.87-2.646 4.064-7.914 8.908-17.971 8.908zm-71.46-142.43c-8.268 0-15.568 3.381-20.54 9.517-5.818 7.177-7.753 17.273-5.453 28.438 5.867 28.483 56.28 83.727 90.425 91.957 2.608.629 4.973.949 7.028.949 5.322 0 7.303-2.094 8.332-3.672 4.163-6.398 1.801-20.312-1.501-27.894-9.454-21.7-39.414-78.59-54.556-90.29-7.622-5.893-15.828-9.006-23.735-9.006z" fill="#000" fill-rule="nonzero"/></g><g transform="translate(555 95)" fill="#D7D2B8" stroke="#000"><path d="M86.736 12.617a37.04 37.04 0 0 0-.136-1.03l-.344.629.48.401zM38.66 43.874c-2.903.787-6.172 1.177-9.78 1.177-5.023 0-8.129-.37-10.44-1.126-.658-.216-1.984-.766-1.762-.682-.035-.015.03-.002-.154.005-.604.023-1.679.192-3.412.567-5.932 1.281-9.792 2.287-11.306 2.908l-9.272 3.8 3.32-9.455C-.301 30.116 4.164 22.752 9.59 18.972a61.594 61.594 0 0 1 4.548-2.889L2.67 11.423 9.636 6.7c8.85-6.003 14.947-9.004 19.243-9.004H44.441l.542.137c1.807.456 3.464.914 4.977 1.378l-3.689-5.606 10.433 1.975c6.785 1.284 12.175 3.629 16.106 7.13.337.3 2.325 2.06 2.786 2.475.387.348.723.654 1.026.94-.022-2.713.79-4.934 2.73-6.57l2.892-2.438L97.77 10.12l-1.862 3.266c-5.457 9.569-8.52 16.765-9.205 21.334a269.647 269.647 0 0 1-3.06 16.673l-1.281 5.96-5.318-2.979c-1.86-1.042-8.173-1.3-18.084-.3-10.668 1.077-18.37 2.187-23.017 3.302l-21.458 5.147 17.73-13.138c2.725-2.02 4.87-3.874 6.444-5.511z" stroke-width="9"/><path d="M164.49 42.86c1.928 2.936 3.267 5.924 3.998 8.968 1.135 4.718 1.998 12.338 2.623 22.966l.405 6.87-5.79-3.72c-8.645-5.552-15.23-9.368-19.695-11.426-4.82-2.22-8.126-3.948-10.025-5.264l-2.115-1.466.769-2.456c2.75-8.791 8.01-16.275 15.705-22.393 3.662-2.91 6.516-5.026 8.598-6.366 1.146-.738 2.094-1.266 2.907-1.6 1.761-.72 3.26-.876 4.81.532l.271.247 10.884 15.108h-13.346z" stroke-width="7"/></g><g transform="translate(497 40)" stroke="#000"><path d="M39.368 163.34L-2.134 5.941l-.02-.136c-.267-1.793-.373-3.206-.304-4.292.113-1.802.665-3.15 2.304-3.706 2.412-.817 4.064.8 6.778 4.786 3.905 5.738 27.13 51.853 70.182 139.31l1.39 2.822-3.064.716c-8.404 1.964-14.426 3.814-18 5.507-3.564 1.689-8.507 5.03-14.767 10.009l-2.997 2.383z" stroke-width="5" fill="#BD10E0"/><path d="M13.5 65.5c4.07-.554 6.781-2.24 8.135-5.061 1.354-2.821 2.642-9.467 3.865-19.939M24 96c4.07-.554 6.781-2.24 8.135-5.061 1.354-2.821 3.193-11.3 5.517-25.439M33 130.5c6.695-3.205 10.72-6.218 12.074-9.039 1.354-2.82 3.782-12.223 7.285-28.207M8.5 40.5c3.6-2.37 5.848-4.808 6.743-7.314.895-2.505 1.147-7.068.757-13.686" stroke-width="2" stroke-linecap="square"/></g></g></svg>